ISO-10303-21;
HEADER;
/* Generated by software containing ST-Developer
 * from STEP Tools, Inc. (www.steptools.com) 
 */

FILE_DESCRIPTION(
/* description */ (''),
/* implementation_level */ '2;1');

FILE_NAME(
/* name */ 'Base.step',
/* time_stamp */ '2026-01-20T21:52:50+01:00',
/* author */ (''),
/* organization */ (''),
/* preprocessor_version */ 'ST-DEVELOPER v20.1',
/* originating_system */ 'Autodesk Translation Framework v14.21.0.0',
/* authorisation */ '');

FILE_SCHEMA (('AUTOMOTIVE_DESIGN { 1 0 10303 214 3 1 1 }'));
ENDSEC;

DATA;
#10=MECHANICAL_DESIGN_GEOMETRIC_PRESENTATION_REPRESENTATION('',(#21),#644);
#11=ITEM_DEFINED_TRANSFORMATION($,$,#384,#421);
#12=ITEM_DEFINED_TRANSFORMATION($,$,#420,#422);
#13=(
REPRESENTATION_RELATIONSHIP($,$,#658,#657)
REPRESENTATION_RELATIONSHIP_WITH_TRANSFORMATION(#11)
SHAPE_REPRESENTATION_RELATIONSHIP()
);
#14=(
REPRESENTATION_RELATIONSHIP($,$,#659,#657)
REPRESENTATION_RELATIONSHIP_WITH_TRANSFORMATION(#12)
SHAPE_REPRESENTATION_RELATIONSHIP()
);
#15=CONTEXT_DEPENDENT_SHAPE_REPRESENTATION(#13,#655);
#16=CONTEXT_DEPENDENT_SHAPE_REPRESENTATION(#14,#656);
#17=NEXT_ASSEMBLY_USAGE_OCCURRENCE('Base:1','Base:1','Base:1',#661,#662,
'Base:1');
#18=NEXT_ASSEMBLY_USAGE_OCCURRENCE('Lamp:1','Lamp:1','Lamp:1',#661,#663,
'Lamp:1');
#19=SHAPE_REPRESENTATION_RELATIONSHIP('SRR','None',#658,#20);
#20=ADVANCED_BREP_SHAPE_REPRESENTATION('',(#22),#642);
#21=STYLED_ITEM('',(#676),#22);
#22=MANIFOLD_SOLID_BREP('Cuerpo1',#359);
#23=FACE_BOUND('',#60,.T.);
#24=FACE_BOUND('',#62,.T.);
#25=FACE_BOUND('',#77,.T.);
#26=PLANE('',#388);
#27=PLANE('',#389);
#28=PLANE('',#392);
#29=PLANE('',#399);
#30=PLANE('',#400);
#31=PLANE('',#401);
#32=PLANE('',#402);
#33=PLANE('',#406);
#34=PLANE('',#410);
#35=PLANE('',#414);
#36=PLANE('',#418);
#37=PLANE('',#419);
#38=FACE_OUTER_BOUND('',#57,.T.);
#39=FACE_OUTER_BOUND('',#58,.T.);
#40=FACE_OUTER_BOUND('',#59,.T.);
#41=FACE_OUTER_BOUND('',#61,.T.);
#42=FACE_OUTER_BOUND('',#63,.T.);
#43=FACE_OUTER_BOUND('',#64,.T.);
#44=FACE_OUTER_BOUND('',#65,.T.);
#45=FACE_OUTER_BOUND('',#66,.T.);
#46=FACE_OUTER_BOUND('',#67,.T.);
#47=FACE_OUTER_BOUND('',#68,.T.);
#48=FACE_OUTER_BOUND('',#69,.T.);
#49=FACE_OUTER_BOUND('',#70,.T.);
#50=FACE_OUTER_BOUND('',#71,.T.);
#51=FACE_OUTER_BOUND('',#72,.T.);
#52=FACE_OUTER_BOUND('',#73,.T.);
#53=FACE_OUTER_BOUND('',#74,.T.);
#54=FACE_OUTER_BOUND('',#75,.T.);
#55=FACE_OUTER_BOUND('',#76,.T.);
#56=FACE_OUTER_BOUND('',#78,.T.);
#57=EDGE_LOOP('',(#237,#238,#239,#240));
#58=EDGE_LOOP('',(#241,#242,#243,#244));
#59=EDGE_LOOP('',(#245,#246,#247));
#60=EDGE_LOOP('',(#248));
#61=EDGE_LOOP('',(#249,#250));
#62=EDGE_LOOP('',(#251));
#63=EDGE_LOOP('',(#252,#253,#254,#255,#256,#257,#258,#259));
#64=EDGE_LOOP('',(#260,#261,#262,#263));
#65=EDGE_LOOP('',(#264,#265,#266,#267));
#66=EDGE_LOOP('',(#268,#269,#270,#271));
#67=EDGE_LOOP('',(#272,#273,#274,#275));
#68=EDGE_LOOP('',(#276,#277,#278,#279));
#69=EDGE_LOOP('',(#280,#281,#282,#283));
#70=EDGE_LOOP('',(#284,#285,#286,#287));
#71=EDGE_LOOP('',(#288,#289,#290,#291));
#72=EDGE_LOOP('',(#292,#293,#294,#295,#296,#297,#298,#299));
#73=EDGE_LOOP('',(#300,#301,#302,#303));
#74=EDGE_LOOP('',(#304,#305,#306,#307));
#75=EDGE_LOOP('',(#308,#309,#310,#311));
#76=EDGE_LOOP('',(#312,#313,#314,#315,#316,#317,#318,#319));
#77=EDGE_LOOP('',(#320));
#78=EDGE_LOOP('',(#321,#322,#323,#324,#325,#326,#327,#328,#329,#330,#331,
#332));
#79=LINE('',#541,#111);
#80=LINE('',#546,#112);
#81=LINE('',#548,#113);
#82=LINE('',#550,#114);
#83=LINE('',#551,#115);
#84=LINE('',#561,#116);
#85=LINE('',#565,#117);
#86=LINE('',#568,#118);
#87=LINE('',#572,#119);
#88=LINE('',#573,#120);
#89=LINE('',#574,#121);
#90=LINE('',#577,#122);
#91=LINE('',#578,#123);
#92=LINE('',#581,#124);
#93=LINE('',#582,#125);
#94=LINE('',#586,#126);
#95=LINE('',#588,#127);
#96=LINE('',#590,#128);
#97=LINE('',#591,#129);
#98=LINE('',#597,#130);
#99=LINE('',#600,#131);
#100=LINE('',#602,#132);
#101=LINE('',#603,#133);
#102=LINE('',#609,#134);
#103=LINE('',#612,#135);
#104=LINE('',#613,#136);
#105=LINE('',#615,#137);
#106=LINE('',#616,#138);
#107=LINE('',#622,#139);
#108=LINE('',#625,#140);
#109=LINE('',#627,#141);
#110=LINE('',#628,#142);
#111=VECTOR('',#431,22.5);
#112=VECTOR('',#436,10.);
#113=VECTOR('',#437,10.);
#114=VECTOR('',#438,10.);
#115=VECTOR('',#439,10.);
#116=VECTOR('',#454,35.);
#117=VECTOR('',#459,10.);
#118=VECTOR('',#462,10.);
#119=VECTOR('',#465,10.);
#120=VECTOR('',#466,10.);
#121=VECTOR('',#467,10.);
#122=VECTOR('',#470,10.);
#123=VECTOR('',#471,10.);
#124=VECTOR('',#474,10.);
#125=VECTOR('',#475,10.);
#126=VECTOR('',#478,10.);
#127=VECTOR('',#479,10.);
#128=VECTOR('',#480,10.);
#129=VECTOR('',#481,10.);
#130=VECTOR('',#488,10.);
#131=VECTOR('',#491,10.);
#132=VECTOR('',#492,10.);
#133=VECTOR('',#493,10.);
#134=VECTOR('',#500,10.);
#135=VECTOR('',#503,10.);
#136=VECTOR('',#504,10.);
#137=VECTOR('',#505,10.);
#138=VECTOR('',#506,10.);
#139=VECTOR('',#513,10.);
#140=VECTOR('',#516,10.);
#141=VECTOR('',#517,10.);
#142=VECTOR('',#518,10.);
#143=CIRCLE('',#386,22.5);
#144=CIRCLE('',#387,22.5);
#145=CIRCLE('',#390,35.);
#146=CIRCLE('',#391,35.);
#147=CIRCLE('',#393,35.);
#148=CIRCLE('',#395,35.);
#149=CIRCLE('',#396,35.);
#150=CIRCLE('',#398,35.);
#151=CIRCLE('',#404,39.9999999999999);
#152=CIRCLE('',#405,39.9999999999999);
#153=CIRCLE('',#408,39.9999999999999);
#154=CIRCLE('',#409,39.9999999999999);
#155=CIRCLE('',#412,39.9999999999999);
#156=CIRCLE('',#413,39.9999999999999);
#157=CIRCLE('',#416,40.);
#158=CIRCLE('',#417,40.);
#159=VERTEX_POINT('',#538);
#160=VERTEX_POINT('',#540);
#161=VERTEX_POINT('',#544);
#162=VERTEX_POINT('',#545);
#163=VERTEX_POINT('',#547);
#164=VERTEX_POINT('',#549);
#165=VERTEX_POINT('',#553);
#166=VERTEX_POINT('',#559);
#167=VERTEX_POINT('',#564);
#168=VERTEX_POINT('',#566);
#169=VERTEX_POINT('',#570);
#170=VERTEX_POINT('',#571);
#171=VERTEX_POINT('',#576);
#172=VERTEX_POINT('',#580);
#173=VERTEX_POINT('',#584);
#174=VERTEX_POINT('',#585);
#175=VERTEX_POINT('',#587);
#176=VERTEX_POINT('',#589);
#177=VERTEX_POINT('',#593);
#178=VERTEX_POINT('',#595);
#179=VERTEX_POINT('',#599);
#180=VERTEX_POINT('',#601);
#181=VERTEX_POINT('',#605);
#182=VERTEX_POINT('',#607);
#183=VERTEX_POINT('',#611);
#184=VERTEX_POINT('',#614);
#185=VERTEX_POINT('',#618);
#186=VERTEX_POINT('',#620);
#187=VERTEX_POINT('',#624);
#188=VERTEX_POINT('',#626);
#189=EDGE_CURVE('',#159,#159,#143,.T.);
#190=EDGE_CURVE('',#159,#160,#79,.T.);
#191=EDGE_CURVE('',#160,#160,#144,.T.);
#192=EDGE_CURVE('',#161,#162,#80,.T.);
#193=EDGE_CURVE('',#163,#162,#81,.T.);
#194=EDGE_CURVE('',#164,#163,#82,.T.);
#195=EDGE_CURVE('',#161,#164,#83,.T.);
#196=EDGE_CURVE('',#165,#163,#145,.T.);
#197=EDGE_CURVE('',#164,#165,#146,.T.);
#198=EDGE_CURVE('',#162,#161,#147,.T.);
#199=EDGE_CURVE('',#166,#166,#148,.T.);
#200=EDGE_CURVE('',#166,#165,#84,.T.);
#201=EDGE_CURVE('',#161,#162,#149,.T.);
#202=EDGE_CURVE('',#167,#161,#85,.T.);
#203=EDGE_CURVE('',#168,#167,#150,.T.);
#204=EDGE_CURVE('',#168,#162,#86,.T.);
#205=EDGE_CURVE('',#169,#170,#87,.T.);
#206=EDGE_CURVE('',#161,#170,#88,.T.);
#207=EDGE_CURVE('',#169,#162,#89,.T.);
#208=EDGE_CURVE('',#171,#170,#90,.T.);
#209=EDGE_CURVE('',#171,#167,#91,.T.);
#210=EDGE_CURVE('',#168,#172,#92,.T.);
#211=EDGE_CURVE('',#172,#169,#93,.T.);
#212=EDGE_CURVE('',#173,#174,#94,.T.);
#213=EDGE_CURVE('',#173,#175,#95,.T.);
#214=EDGE_CURVE('',#176,#175,#96,.T.);
#215=EDGE_CURVE('',#174,#176,#97,.T.);
#216=EDGE_CURVE('',#177,#174,#151,.T.);
#217=EDGE_CURVE('',#178,#176,#152,.T.);
#218=EDGE_CURVE('',#177,#178,#98,.T.);
#219=EDGE_CURVE('',#177,#179,#99,.T.);
#220=EDGE_CURVE('',#180,#178,#100,.T.);
#221=EDGE_CURVE('',#179,#180,#101,.T.);
#222=EDGE_CURVE('',#181,#179,#153,.T.);
#223=EDGE_CURVE('',#182,#180,#154,.T.);
#224=EDGE_CURVE('',#181,#182,#102,.T.);
#225=EDGE_CURVE('',#171,#183,#103,.T.);
#226=EDGE_CURVE('',#181,#172,#104,.T.);
#227=EDGE_CURVE('',#184,#182,#105,.T.);
#228=EDGE_CURVE('',#183,#184,#106,.T.);
#229=EDGE_CURVE('',#185,#183,#155,.T.);
#230=EDGE_CURVE('',#186,#184,#156,.T.);
#231=EDGE_CURVE('',#185,#186,#107,.T.);
#232=EDGE_CURVE('',#185,#187,#108,.T.);
#233=EDGE_CURVE('',#188,#186,#109,.T.);
#234=EDGE_CURVE('',#187,#188,#110,.T.);
#235=EDGE_CURVE('',#173,#187,#157,.T.);
#236=EDGE_CURVE('',#175,#188,#158,.T.);
#237=ORIENTED_EDGE('',*,*,#189,.F.);
#238=ORIENTED_EDGE('',*,*,#190,.T.);
#239=ORIENTED_EDGE('',*,*,#191,.T.);
#240=ORIENTED_EDGE('',*,*,#190,.F.);
#241=ORIENTED_EDGE('',*,*,#192,.T.);
#242=ORIENTED_EDGE('',*,*,#193,.F.);
#243=ORIENTED_EDGE('',*,*,#194,.F.);
#244=ORIENTED_EDGE('',*,*,#195,.F.);
#245=ORIENTED_EDGE('',*,*,#194,.T.);
#246=ORIENTED_EDGE('',*,*,#196,.F.);
#247=ORIENTED_EDGE('',*,*,#197,.F.);
#248=ORIENTED_EDGE('',*,*,#189,.T.);
#249=ORIENTED_EDGE('',*,*,#192,.F.);
#250=ORIENTED_EDGE('',*,*,#198,.F.);
#251=ORIENTED_EDGE('',*,*,#191,.F.);
#252=ORIENTED_EDGE('',*,*,#199,.F.);
#253=ORIENTED_EDGE('',*,*,#200,.T.);
#254=ORIENTED_EDGE('',*,*,#196,.T.);
#255=ORIENTED_EDGE('',*,*,#193,.T.);
#256=ORIENTED_EDGE('',*,*,#201,.F.);
#257=ORIENTED_EDGE('',*,*,#195,.T.);
#258=ORIENTED_EDGE('',*,*,#197,.T.);
#259=ORIENTED_EDGE('',*,*,#200,.F.);
#260=ORIENTED_EDGE('',*,*,#198,.T.);
#261=ORIENTED_EDGE('',*,*,#202,.F.);
#262=ORIENTED_EDGE('',*,*,#203,.F.);
#263=ORIENTED_EDGE('',*,*,#204,.T.);
#264=ORIENTED_EDGE('',*,*,#205,.T.);
#265=ORIENTED_EDGE('',*,*,#206,.F.);
#266=ORIENTED_EDGE('',*,*,#201,.T.);
#267=ORIENTED_EDGE('',*,*,#207,.F.);
#268=ORIENTED_EDGE('',*,*,#206,.T.);
#269=ORIENTED_EDGE('',*,*,#208,.F.);
#270=ORIENTED_EDGE('',*,*,#209,.T.);
#271=ORIENTED_EDGE('',*,*,#202,.T.);
#272=ORIENTED_EDGE('',*,*,#207,.T.);
#273=ORIENTED_EDGE('',*,*,#204,.F.);
#274=ORIENTED_EDGE('',*,*,#210,.T.);
#275=ORIENTED_EDGE('',*,*,#211,.T.);
#276=ORIENTED_EDGE('',*,*,#212,.F.);
#277=ORIENTED_EDGE('',*,*,#213,.T.);
#278=ORIENTED_EDGE('',*,*,#214,.F.);
#279=ORIENTED_EDGE('',*,*,#215,.F.);
#280=ORIENTED_EDGE('',*,*,#216,.T.);
#281=ORIENTED_EDGE('',*,*,#215,.T.);
#282=ORIENTED_EDGE('',*,*,#217,.F.);
#283=ORIENTED_EDGE('',*,*,#218,.F.);
#284=ORIENTED_EDGE('',*,*,#219,.F.);
#285=ORIENTED_EDGE('',*,*,#218,.T.);
#286=ORIENTED_EDGE('',*,*,#220,.F.);
#287=ORIENTED_EDGE('',*,*,#221,.F.);
#288=ORIENTED_EDGE('',*,*,#222,.T.);
#289=ORIENTED_EDGE('',*,*,#221,.T.);
#290=ORIENTED_EDGE('',*,*,#223,.F.);
#291=ORIENTED_EDGE('',*,*,#224,.F.);
#292=ORIENTED_EDGE('',*,*,#225,.F.);
#293=ORIENTED_EDGE('',*,*,#208,.T.);
#294=ORIENTED_EDGE('',*,*,#205,.F.);
#295=ORIENTED_EDGE('',*,*,#211,.F.);
#296=ORIENTED_EDGE('',*,*,#226,.F.);
#297=ORIENTED_EDGE('',*,*,#224,.T.);
#298=ORIENTED_EDGE('',*,*,#227,.F.);
#299=ORIENTED_EDGE('',*,*,#228,.F.);
#300=ORIENTED_EDGE('',*,*,#229,.T.);
#301=ORIENTED_EDGE('',*,*,#228,.T.);
#302=ORIENTED_EDGE('',*,*,#230,.F.);
#303=ORIENTED_EDGE('',*,*,#231,.F.);
#304=ORIENTED_EDGE('',*,*,#232,.F.);
#305=ORIENTED_EDGE('',*,*,#231,.T.);
#306=ORIENTED_EDGE('',*,*,#233,.F.);
#307=ORIENTED_EDGE('',*,*,#234,.F.);
#308=ORIENTED_EDGE('',*,*,#235,.T.);
#309=ORIENTED_EDGE('',*,*,#234,.T.);
#310=ORIENTED_EDGE('',*,*,#236,.F.);
#311=ORIENTED_EDGE('',*,*,#213,.F.);
#312=ORIENTED_EDGE('',*,*,#227,.T.);
#313=ORIENTED_EDGE('',*,*,#223,.T.);
#314=ORIENTED_EDGE('',*,*,#220,.T.);
#315=ORIENTED_EDGE('',*,*,#217,.T.);
#316=ORIENTED_EDGE('',*,*,#214,.T.);
#317=ORIENTED_EDGE('',*,*,#236,.T.);
#318=ORIENTED_EDGE('',*,*,#233,.T.);
#319=ORIENTED_EDGE('',*,*,#230,.T.);
#320=ORIENTED_EDGE('',*,*,#199,.T.);
#321=ORIENTED_EDGE('',*,*,#235,.F.);
#322=ORIENTED_EDGE('',*,*,#212,.T.);
#323=ORIENTED_EDGE('',*,*,#216,.F.);
#324=ORIENTED_EDGE('',*,*,#219,.T.);
#325=ORIENTED_EDGE('',*,*,#222,.F.);
#326=ORIENTED_EDGE('',*,*,#226,.T.);
#327=ORIENTED_EDGE('',*,*,#210,.F.);
#328=ORIENTED_EDGE('',*,*,#203,.T.);
#329=ORIENTED_EDGE('',*,*,#209,.F.);
#330=ORIENTED_EDGE('',*,*,#225,.T.);
#331=ORIENTED_EDGE('',*,*,#229,.F.);
#332=ORIENTED_EDGE('',*,*,#232,.T.);
#333=CYLINDRICAL_SURFACE('',#385,22.5);
#334=CYLINDRICAL_SURFACE('',#394,35.);
#335=CYLINDRICAL_SURFACE('',#397,35.);
#336=CYLINDRICAL_SURFACE('',#403,39.9999999999999);
#337=CYLINDRICAL_SURFACE('',#407,39.9999999999999);
#338=CYLINDRICAL_SURFACE('',#411,39.9999999999999);
#339=CYLINDRICAL_SURFACE('',#415,40.);
#340=ADVANCED_FACE('',(#38),#333,.F.);
#341=ADVANCED_FACE('',(#39),#26,.T.);
#342=ADVANCED_FACE('',(#40,#23),#27,.T.);
#343=ADVANCED_FACE('',(#41,#24),#28,.F.);
#344=ADVANCED_FACE('',(#42),#334,.F.);
#345=ADVANCED_FACE('',(#43),#335,.F.);
#346=ADVANCED_FACE('',(#44),#29,.F.);
#347=ADVANCED_FACE('',(#45),#30,.T.);
#348=ADVANCED_FACE('',(#46),#31,.T.);
#349=ADVANCED_FACE('',(#47),#32,.T.);
#350=ADVANCED_FACE('',(#48),#336,.T.);
#351=ADVANCED_FACE('',(#49),#33,.T.);
#352=ADVANCED_FACE('',(#50),#337,.T.);
#353=ADVANCED_FACE('',(#51),#34,.T.);
#354=ADVANCED_FACE('',(#52),#338,.T.);
#355=ADVANCED_FACE('',(#53),#35,.T.);
#356=ADVANCED_FACE('',(#54),#339,.T.);
#357=ADVANCED_FACE('',(#55,#25),#36,.T.);
#358=ADVANCED_FACE('',(#56),#37,.F.);
#359=CLOSED_SHELL('',(#340,#341,#342,#343,#344,#345,#346,#347,#348,#349,
#350,#351,#352,#353,#354,#355,#356,#357,#358));
#360=DERIVED_UNIT_ELEMENT(#364,1.);
#361=DERIVED_UNIT_ELEMENT(#646,-3.);
#362=DERIVED_UNIT_ELEMENT(#364,1.);
#363=DERIVED_UNIT_ELEMENT(#646,-3.);
#364=(
MASS_UNIT()
NAMED_UNIT(*)
SI_UNIT(.KILO.,.GRAM.)
);
#365=DERIVED_UNIT((#360,#361));
#366=DERIVED_UNIT((#362,#363));
#367=MEASURE_REPRESENTATION_ITEM('density measure',
POSITIVE_RATIO_MEASURE(7850.),#365);
#368=MEASURE_REPRESENTATION_ITEM('density measure',
POSITIVE_RATIO_MEASURE(7850.),#366);
#369=PROPERTY_DEFINITION_REPRESENTATION(#379,#373);
#370=PROPERTY_DEFINITION_REPRESENTATION(#380,#374);
#371=PROPERTY_DEFINITION_REPRESENTATION(#381,#375);
#372=PROPERTY_DEFINITION_REPRESENTATION(#382,#376);
#373=REPRESENTATION('material name',(#377),#642);
#374=REPRESENTATION('density',(#367),#642);
#375=REPRESENTATION('material name',(#378),#643);
#376=REPRESENTATION('density',(#368),#643);
#377=DESCRIPTIVE_REPRESENTATION_ITEM('Acero','Acero');
#378=DESCRIPTIVE_REPRESENTATION_ITEM('Acero','Acero');
#379=PROPERTY_DEFINITION('material property','material name',#662);
#380=PROPERTY_DEFINITION('material property','density of part',#662);
#381=PROPERTY_DEFINITION('material property','material name',#663);
#382=PROPERTY_DEFINITION('material property','density of part',#663);
#383=AXIS2_PLACEMENT_3D('',#535,#423,#424);
#384=AXIS2_PLACEMENT_3D('',#536,#425,#426);
#385=AXIS2_PLACEMENT_3D('',#537,#427,#428);
#386=AXIS2_PLACEMENT_3D('',#539,#429,#430);
#387=AXIS2_PLACEMENT_3D('',#542,#432,#433);
#388=AXIS2_PLACEMENT_3D('',#543,#434,#435);
#389=AXIS2_PLACEMENT_3D('',#552,#440,#441);
#390=AXIS2_PLACEMENT_3D('',#554,#442,#443);
#391=AXIS2_PLACEMENT_3D('',#555,#444,#445);
#392=AXIS2_PLACEMENT_3D('',#556,#446,#447);
#393=AXIS2_PLACEMENT_3D('',#557,#448,#449);
#394=AXIS2_PLACEMENT_3D('',#558,#450,#451);
#395=AXIS2_PLACEMENT_3D('',#560,#452,#453);
#396=AXIS2_PLACEMENT_3D('',#562,#455,#456);
#397=AXIS2_PLACEMENT_3D('',#563,#457,#458);
#398=AXIS2_PLACEMENT_3D('',#567,#460,#461);
#399=AXIS2_PLACEMENT_3D('',#569,#463,#464);
#400=AXIS2_PLACEMENT_3D('',#575,#468,#469);
#401=AXIS2_PLACEMENT_3D('',#579,#472,#473);
#402=AXIS2_PLACEMENT_3D('',#583,#476,#477);
#403=AXIS2_PLACEMENT_3D('',#592,#482,#483);
#404=AXIS2_PLACEMENT_3D('',#594,#484,#485);
#405=AXIS2_PLACEMENT_3D('',#596,#486,#487);
#406=AXIS2_PLACEMENT_3D('',#598,#489,#490);
#407=AXIS2_PLACEMENT_3D('',#604,#494,#495);
#408=AXIS2_PLACEMENT_3D('',#606,#496,#497);
#409=AXIS2_PLACEMENT_3D('',#608,#498,#499);
#410=AXIS2_PLACEMENT_3D('',#610,#501,#502);
#411=AXIS2_PLACEMENT_3D('',#617,#507,#508);
#412=AXIS2_PLACEMENT_3D('',#619,#509,#510);
#413=AXIS2_PLACEMENT_3D('',#621,#511,#512);
#414=AXIS2_PLACEMENT_3D('',#623,#514,#515);
#415=AXIS2_PLACEMENT_3D('',#629,#519,#520);
#416=AXIS2_PLACEMENT_3D('',#630,#521,#522);
#417=AXIS2_PLACEMENT_3D('',#631,#523,#524);
#418=AXIS2_PLACEMENT_3D('',#632,#525,#526);
#419=AXIS2_PLACEMENT_3D('',#633,#527,#528);
#420=AXIS2_PLACEMENT_3D('',#634,#529,#530);
#421=AXIS2_PLACEMENT_3D('',#635,#531,#532);
#422=AXIS2_PLACEMENT_3D('',#636,#533,#534);
#423=DIRECTION('axis',(0.,0.,1.));
#424=DIRECTION('refdir',(1.,0.,0.));
#425=DIRECTION('axis',(0.,0.,1.));
#426=DIRECTION('refdir',(1.,0.,0.));
#427=DIRECTION('center_axis',(0.,1.,0.));
#428=DIRECTION('ref_axis',(1.,0.,0.));
#429=DIRECTION('center_axis',(0.,-1.,0.));
#430=DIRECTION('ref_axis',(1.,0.,0.));
#431=DIRECTION('',(0.,-1.,0.));
#432=DIRECTION('center_axis',(0.,-1.,0.));
#433=DIRECTION('ref_axis',(1.,0.,0.));
#434=DIRECTION('center_axis',(0.,0.,1.));
#435=DIRECTION('ref_axis',(1.,0.,0.));
#436=DIRECTION('',(1.,0.,0.));
#437=DIRECTION('',(0.,-1.,0.));
#438=DIRECTION('',(1.,0.,0.));
#439=DIRECTION('',(0.,1.,0.));
#440=DIRECTION('center_axis',(0.,1.,0.));
#441=DIRECTION('ref_axis',(1.,0.,0.));
#442=DIRECTION('center_axis',(0.,-1.,0.));
#443=DIRECTION('ref_axis',(1.,0.,0.));
#444=DIRECTION('center_axis',(0.,-1.,0.));
#445=DIRECTION('ref_axis',(1.,0.,0.));
#446=DIRECTION('center_axis',(0.,1.,0.));
#447=DIRECTION('ref_axis',(1.,0.,0.));
#448=DIRECTION('center_axis',(0.,1.,0.));
#449=DIRECTION('ref_axis',(1.,0.,0.));
#450=DIRECTION('center_axis',(0.,1.,0.));
#451=DIRECTION('ref_axis',(1.,0.,0.));
#452=DIRECTION('center_axis',(0.,-1.,0.));
#453=DIRECTION('ref_axis',(1.,0.,0.));
#454=DIRECTION('',(0.,-1.,0.));
#455=DIRECTION('center_axis',(0.,1.,0.));
#456=DIRECTION('ref_axis',(1.,0.,0.));
#457=DIRECTION('center_axis',(0.,1.,0.));
#458=DIRECTION('ref_axis',(2.83276944882399E-16,0.,-1.));
#459=DIRECTION('',(0.,1.,0.));
#460=DIRECTION('center_axis',(0.,1.,0.));
#461=DIRECTION('ref_axis',(1.,0.,0.));
#462=DIRECTION('',(0.,1.,0.));
#463=DIRECTION('center_axis',(0.,1.,0.));
#464=DIRECTION('ref_axis',(1.,0.,0.));
#465=DIRECTION('',(-1.,0.,0.));
#466=DIRECTION('',(0.,0.,1.));
#467=DIRECTION('',(0.,0.,-1.));
#468=DIRECTION('center_axis',(1.,0.,0.));
#469=DIRECTION('ref_axis',(0.,0.,-1.));
#470=DIRECTION('',(0.,1.,0.));
#471=DIRECTION('',(0.,0.,-1.));
#472=DIRECTION('center_axis',(-1.,0.,0.));
#473=DIRECTION('ref_axis',(0.,0.,1.));
#474=DIRECTION('',(0.,0.,1.));
#475=DIRECTION('',(0.,1.,0.));
#476=DIRECTION('center_axis',(0.,0.,-1.));
#477=DIRECTION('ref_axis',(-1.,0.,0.));
#478=DIRECTION('',(1.,0.,0.));
#479=DIRECTION('',(0.,1.,0.));
#480=DIRECTION('',(-1.,0.,0.));
#481=DIRECTION('',(0.,1.,0.));
#482=DIRECTION('center_axis',(0.,1.,0.));
#483=DIRECTION('ref_axis',(1.,0.,0.));
#484=DIRECTION('center_axis',(0.,1.,0.));
#485=DIRECTION('ref_axis',(1.,0.,0.));
#486=DIRECTION('center_axis',(0.,1.,0.));
#487=DIRECTION('ref_axis',(1.,0.,0.));
#488=DIRECTION('',(0.,1.,0.));
#489=DIRECTION('center_axis',(1.,0.,0.));
#490=DIRECTION('ref_axis',(0.,0.,-1.));
#491=DIRECTION('',(0.,0.,1.));
#492=DIRECTION('',(0.,0.,-1.));
#493=DIRECTION('',(0.,1.,0.));
#494=DIRECTION('center_axis',(0.,1.,0.));
#495=DIRECTION('ref_axis',(0.,0.,1.));
#496=DIRECTION('center_axis',(0.,1.,0.));
#497=DIRECTION('ref_axis',(0.,0.,1.));
#498=DIRECTION('center_axis',(0.,1.,0.));
#499=DIRECTION('ref_axis',(0.,0.,1.));
#500=DIRECTION('',(0.,1.,0.));
#501=DIRECTION('center_axis',(0.,0.,1.));
#502=DIRECTION('ref_axis',(1.,0.,0.));
#503=DIRECTION('',(-1.,0.,0.));
#504=DIRECTION('',(-1.,0.,0.));
#505=DIRECTION('',(1.,0.,0.));
#506=DIRECTION('',(0.,1.,0.));
#507=DIRECTION('center_axis',(0.,1.,0.));
#508=DIRECTION('ref_axis',(-1.,0.,-1.11022302462516E-15));
#509=DIRECTION('center_axis',(0.,1.,0.));
#510=DIRECTION('ref_axis',(-1.,0.,-1.11022302462516E-15));
#511=DIRECTION('center_axis',(0.,1.,0.));
#512=DIRECTION('ref_axis',(-1.,0.,-1.11022302462516E-15));
#513=DIRECTION('',(0.,1.,0.));
#514=DIRECTION('center_axis',(-1.,0.,0.));
#515=DIRECTION('ref_axis',(0.,0.,1.));
#516=DIRECTION('',(0.,0.,-1.));
#517=DIRECTION('',(0.,0.,1.));
#518=DIRECTION('',(0.,1.,0.));
#519=DIRECTION('center_axis',(0.,1.,0.));
#520=DIRECTION('ref_axis',(7.7715611723761E-16,0.,-1.));
#521=DIRECTION('center_axis',(0.,1.,0.));
#522=DIRECTION('ref_axis',(7.7715611723761E-16,0.,-1.));
#523=DIRECTION('center_axis',(0.,1.,0.));
#524=DIRECTION('ref_axis',(7.7715611723761E-16,0.,-1.));
#525=DIRECTION('center_axis',(0.,1.,0.));
#526=DIRECTION('ref_axis',(1.,0.,0.));
#527=DIRECTION('center_axis',(0.,1.,0.));
#528=DIRECTION('ref_axis',(1.,0.,0.));
#529=DIRECTION('axis',(0.,0.,1.));
#530=DIRECTION('refdir',(1.,0.,0.));
#531=DIRECTION('',(0.,0.,1.));
#532=DIRECTION('',(1.,0.,0.));
#533=DIRECTION('',(0.,0.,1.));
#534=DIRECTION('',(1.,0.,0.));
#535=CARTESIAN_POINT('',(0.,0.,0.));
#536=CARTESIAN_POINT('',(0.,0.,0.));
#537=CARTESIAN_POINT('Origin',(0.,10.,0.));
#538=CARTESIAN_POINT('',(-22.5,20.,2.75545529808154E-15));
#539=CARTESIAN_POINT('Origin',(0.,20.,0.));
#540=CARTESIAN_POINT('',(-22.5,10.,2.75545529808154E-15));
#541=CARTESIAN_POINT('',(-22.5,10.,2.75545529808154E-15));
#542=CARTESIAN_POINT('Origin',(0.,10.,0.));
#543=CARTESIAN_POINT('Origin',(-5.,10.,34.6410161513775));
#544=CARTESIAN_POINT('',(-5.,10.,34.6410161513775));
#545=CARTESIAN_POINT('',(5.,10.,34.6410161513775));
#546=CARTESIAN_POINT('',(-5.,10.,34.6410161513775));
#547=CARTESIAN_POINT('',(5.,20.,34.6410161513775));
#548=CARTESIAN_POINT('',(5.00000000000002,10.,34.6410161513775));
#549=CARTESIAN_POINT('',(-5.,20.,34.6410161513775));
#550=CARTESIAN_POINT('',(-5.,20.,34.6410161513775));
#551=CARTESIAN_POINT('',(-5.00000000000002,10.,34.6410161513775));
#552=CARTESIAN_POINT('Origin',(0.,20.,-0.179491924311228));
#553=CARTESIAN_POINT('',(-35.,20.,4.28626379701574E-15));
#554=CARTESIAN_POINT('Origin',(0.,20.,0.));
#555=CARTESIAN_POINT('Origin',(0.,20.,0.));
#556=CARTESIAN_POINT('Origin',(0.,10.,-0.179491924311228));
#557=CARTESIAN_POINT('Origin',(0.,10.,0.));
#558=CARTESIAN_POINT('Origin',(0.,10.,0.));
#559=CARTESIAN_POINT('',(-35.,22.,4.28626379701574E-15));
#560=CARTESIAN_POINT('Origin',(0.,22.,0.));
#561=CARTESIAN_POINT('',(-35.,10.,4.28626379701574E-15));
#562=CARTESIAN_POINT('Origin',(0.,10.,0.));
#563=CARTESIAN_POINT('Origin',(0.,10.,0.));
#564=CARTESIAN_POINT('',(-5.,0.,34.6410161513775));
#565=CARTESIAN_POINT('',(-5.,0.,34.6410161513775));
#566=CARTESIAN_POINT('',(5.,0.,34.6410161513775));
#567=CARTESIAN_POINT('Origin',(0.,0.,0.));
#568=CARTESIAN_POINT('',(5.,0.,34.6410161513775));
#569=CARTESIAN_POINT('Origin',(1.11022302462516E-15,10.,54.8205080756888));
#570=CARTESIAN_POINT('',(5.,10.,75.));
#571=CARTESIAN_POINT('',(-5.,10.,75.));
#572=CARTESIAN_POINT('',(5.,10.,75.));
#573=CARTESIAN_POINT('',(-5.,10.,64.9102540378444));
#574=CARTESIAN_POINT('',(5.,10.,44.7307621135332));
#575=CARTESIAN_POINT('Origin',(-5.,0.,75.));
#576=CARTESIAN_POINT('',(-5.,0.,75.));
#577=CARTESIAN_POINT('',(-5.,0.,75.));
#578=CARTESIAN_POINT('',(-5.,0.,75.));
#579=CARTESIAN_POINT('Origin',(5.,0.,34.6410161513775));
#580=CARTESIAN_POINT('',(5.,0.,75.));
#581=CARTESIAN_POINT('',(5.,0.,34.6410161513775));
#582=CARTESIAN_POINT('',(5.,0.,75.));
#583=CARTESIAN_POINT('Origin',(35.,0.,-75.));
#584=CARTESIAN_POINT('',(-35.,0.,-75.));
#585=CARTESIAN_POINT('',(35.,0.,-75.));
#586=CARTESIAN_POINT('',(-35.,0.,-75.));
#587=CARTESIAN_POINT('',(-35.,22.,-75.));
#588=CARTESIAN_POINT('',(-35.,0.,-75.));
#589=CARTESIAN_POINT('',(35.,22.,-75.));
#590=CARTESIAN_POINT('',(-35.,22.,-75.));
#591=CARTESIAN_POINT('',(35.,0.,-75.));
#592=CARTESIAN_POINT('Origin',(35.0000000000001,0.,-35.));
#593=CARTESIAN_POINT('',(75.,0.,-35.));
#594=CARTESIAN_POINT('Origin',(35.0000000000001,0.,-35.));
#595=CARTESIAN_POINT('',(75.,22.,-35.));
#596=CARTESIAN_POINT('Origin',(35.0000000000001,22.,-35.));
#597=CARTESIAN_POINT('',(75.,0.,-35.));
#598=CARTESIAN_POINT('Origin',(75.,0.,35.));
#599=CARTESIAN_POINT('',(75.,0.,35.));
#600=CARTESIAN_POINT('',(75.,0.,-35.));
#601=CARTESIAN_POINT('',(75.,22.,35.0000000000001));
#602=CARTESIAN_POINT('',(75.,22.,-35.));
#603=CARTESIAN_POINT('',(75.,0.,35.));
#604=CARTESIAN_POINT('Origin',(35.,0.,35.0000000000001));
#605=CARTESIAN_POINT('',(35.,0.,75.));
#606=CARTESIAN_POINT('Origin',(35.,0.,35.0000000000001));
#607=CARTESIAN_POINT('',(35.,22.,75.));
#608=CARTESIAN_POINT('Origin',(35.,22.,35.0000000000001));
#609=CARTESIAN_POINT('',(35.,0.,75.));
#610=CARTESIAN_POINT('Origin',(-35.0000000000001,0.,75.));
#611=CARTESIAN_POINT('',(-35.0000000000001,0.,75.));
#612=CARTESIAN_POINT('',(35.,0.,75.));
#613=CARTESIAN_POINT('',(35.,0.,75.));
#614=CARTESIAN_POINT('',(-35.0000000000001,22.,75.));
#615=CARTESIAN_POINT('',(35.,22.,75.));
#616=CARTESIAN_POINT('',(-35.0000000000001,0.,75.));
#617=CARTESIAN_POINT('Origin',(-35.0000000000001,0.,35.0000000000001));
#618=CARTESIAN_POINT('',(-75.,0.,35.0000000000001));
#619=CARTESIAN_POINT('Origin',(-35.0000000000001,0.,35.0000000000001));
#620=CARTESIAN_POINT('',(-75.,22.,35.0000000000001));
#621=CARTESIAN_POINT('Origin',(-35.0000000000001,22.,35.0000000000001));
#622=CARTESIAN_POINT('',(-75.,0.,35.0000000000001));
#623=CARTESIAN_POINT('Origin',(-75.,0.,-35.));
#624=CARTESIAN_POINT('',(-75.,0.,-35.));
#625=CARTESIAN_POINT('',(-75.,0.,35.0000000000001));
#626=CARTESIAN_POINT('',(-75.,22.,-35.));
#627=CARTESIAN_POINT('',(-75.,22.,35.0000000000001));
#628=CARTESIAN_POINT('',(-75.,0.,-35.));
#629=CARTESIAN_POINT('Origin',(-35.,0.,-35.));
#630=CARTESIAN_POINT('Origin',(-35.,0.,-35.));
#631=CARTESIAN_POINT('Origin',(-35.,22.,-35.));
#632=CARTESIAN_POINT('Origin',(0.,22.,0.));
#633=CARTESIAN_POINT('Origin',(0.,0.,0.));
#634=CARTESIAN_POINT('',(0.,0.,0.));
#635=CARTESIAN_POINT('',(0.,0.,0.));
#636=CARTESIAN_POINT('',(0.,0.,0.));
#637=UNCERTAINTY_MEASURE_WITH_UNIT(LENGTH_MEASURE(0.01),#645,
'DISTANCE_ACCURACY_VALUE',
'Maximum model space distance between geometric entities at asserted c
onnectivities');
#638=UNCERTAINTY_MEASURE_WITH_UNIT(LENGTH_MEASURE(0.01),#645,
'DISTANCE_ACCURACY_VALUE',
'Maximum model space distance between geometric entities at asserted c
onnectivities');
#639=UNCERTAINTY_MEASURE_WITH_UNIT(LENGTH_MEASURE(0.01),#645,
'DISTANCE_ACCURACY_VALUE',
'Maximum model space distance between geometric entities at asserted c
onnectivities');
#640=UNCERTAINTY_MEASURE_WITH_UNIT(LENGTH_MEASURE(0.01),#645,
'DISTANCE_ACCURACY_VALUE',
'Maximum model space distance between geometric entities at asserted c
onnectivities');
#641=(
GEOMETRIC_REPRESENTATION_CONTEXT(3)
GLOBAL_UNCERTAINTY_ASSIGNED_CONTEXT((#637))
GLOBAL_UNIT_ASSIGNED_CONTEXT((#645,#647,#648))
REPRESENTATION_CONTEXT('','3D')
);
#642=(
GEOMETRIC_REPRESENTATION_CONTEXT(3)
GLOBAL_UNCERTAINTY_ASSIGNED_CONTEXT((#638))
GLOBAL_UNIT_ASSIGNED_CONTEXT((#645,#647,#648))
REPRESENTATION_CONTEXT('','3D')
);
#643=(
GEOMETRIC_REPRESENTATION_CONTEXT(3)
GLOBAL_UNCERTAINTY_ASSIGNED_CONTEXT((#639))
GLOBAL_UNIT_ASSIGNED_CONTEXT((#645,#647,#648))
REPRESENTATION_CONTEXT('','3D')
);
#644=(
GEOMETRIC_REPRESENTATION_CONTEXT(3)
GLOBAL_UNCERTAINTY_ASSIGNED_CONTEXT((#640))
GLOBAL_UNIT_ASSIGNED_CONTEXT((#645,#647,#648))
REPRESENTATION_CONTEXT('','3D')
);
#645=(
LENGTH_UNIT()
NAMED_UNIT(*)
SI_UNIT(.MILLI.,.METRE.)
);
#646=(
LENGTH_UNIT()
NAMED_UNIT(*)
SI_UNIT($,.METRE.)
);
#647=(
NAMED_UNIT(*)
PLANE_ANGLE_UNIT()
SI_UNIT($,.RADIAN.)
);
#648=(
NAMED_UNIT(*)
SI_UNIT($,.STERADIAN.)
SOLID_ANGLE_UNIT()
);
#649=SHAPE_DEFINITION_REPRESENTATION(#652,#657);
#650=SHAPE_DEFINITION_REPRESENTATION(#653,#658);
#651=SHAPE_DEFINITION_REPRESENTATION(#654,#659);
#652=PRODUCT_DEFINITION_SHAPE('',$,#661);
#653=PRODUCT_DEFINITION_SHAPE('',$,#662);
#654=PRODUCT_DEFINITION_SHAPE('',$,#663);
#655=PRODUCT_DEFINITION_SHAPE($,$,#17);
#656=PRODUCT_DEFINITION_SHAPE($,$,#18);
#657=SHAPE_REPRESENTATION('',(#383,#421,#422),#641);
#658=SHAPE_REPRESENTATION('',(#384),#642);
#659=SHAPE_REPRESENTATION('',(#420),#643);
#660=PRODUCT_DEFINITION_CONTEXT('part definition',#671,'design');
#661=PRODUCT_DEFINITION('(Sin guardar)','(Sin guardar)',#664,#660);
#662=PRODUCT_DEFINITION('Base','Base',#665,#660);
#663=PRODUCT_DEFINITION('Lamp','Lamp',#666,#660);
#664=PRODUCT_DEFINITION_FORMATION('',$,#673);
#665=PRODUCT_DEFINITION_FORMATION('',$,#674);
#666=PRODUCT_DEFINITION_FORMATION('',$,#675);
#667=PRODUCT_RELATED_PRODUCT_CATEGORY('(Sin guardar)','(Sin guardar)',(#673));
#668=PRODUCT_RELATED_PRODUCT_CATEGORY('Base','Base',(#674));
#669=PRODUCT_RELATED_PRODUCT_CATEGORY('Lamp','Lamp',(#675));
#670=APPLICATION_PROTOCOL_DEFINITION('international standard',
'automotive_design',2009,#671);
#671=APPLICATION_CONTEXT(
'Core Data for Automotive Mechanical Design Process');
#672=PRODUCT_CONTEXT('part definition',#671,'mechanical');
#673=PRODUCT('(Sin guardar)','(Sin guardar)',$,(#672));
#674=PRODUCT('Base','Base',$,(#672));
#675=PRODUCT('Lamp','Lamp',$,(#672));
#676=PRESENTATION_STYLE_ASSIGNMENT((#677));
#677=SURFACE_STYLE_USAGE(.BOTH.,#678);
#678=SURFACE_SIDE_STYLE('',(#679));
#679=SURFACE_STYLE_FILL_AREA(#680);
#680=FILL_AREA_STYLE('Acero - Satinado',(#681));
#681=FILL_AREA_STYLE_COLOUR('Acero - Satinado',#682);
#682=COLOUR_RGB('Acero - Satinado',0.627450980392157,0.627450980392157,
0.627450980392157);
ENDSEC;
END-ISO-10303-21;
